<?xml version="1.0" encoding="iso-8859-1"?>
<!-- Generator: Adobe Illustrator 19.0.0, SVG Export Plug-In . SVG Version: 6.00 Build 0)  -->
<svg version="1.1" id="Capa_1" xmlns="http://www.w3.org/2000/svg" xmlns:xlink="http://www.w3.org/1999/xlink" x="0px" y="0px"
	 viewBox="0 0 512 512" style="enable-background:new 0 0 512 512;" xml:space="preserve">
<g>
	<path style="fill:#92E03F;" d="M352.897,175.56v-4.095c0-14.817-2.833-24.955-8.483-30.421c-5.657-5.457-16.48-8.19-32.468-8.19
		h-18.721c-5.604,0-10.558,0.38-14.892,1.122c7.672,1.273,13.296,3.628,16.862,7.068c5.65,5.466,8.483,15.604,8.483,30.421v4.095
		c0,8.19,4.094,12.286,12.286,12.286h49.219C356.992,187.846,352.897,183.75,352.897,175.56z"/>
	<path style="fill:#92E03F;" d="M287.299,489.714v-45.046h1.17c29.251,0,52.359-8.382,69.324-25.156
		c16.966-16.765,25.449-40.366,25.449-70.787v-22.23c0-38.218-10.338-64.736-31.006-79.563
		c-10.146-7.02-20.384-12.185-30.713-15.503c-10.339-3.309-25.741-5.85-46.217-7.605s-35.009-3.41-43.583-4.973
		c-7.414-1.554-14.041-4.771-19.89-9.653c-5.851-4.872-8.776-11.6-8.776-20.183v-11.7c0-17.55,2.825-29.342,8.482-35.393
		c5.65-6.042,16.472-9.068,32.468-9.068h18.721c5.909,0,11.108,0.376,15.606,1.122c4.334-0.742,9.288-1.122,14.892-1.122h18.721
		c15.988,0,26.811,2.733,32.468,8.19c5.65,5.466,8.483,15.604,8.483,30.421v4.095c0,8.19,4.094,12.286,12.286,12.286h0.507
		c8.19,0,12.286-4.096,12.286-12.286v-11.115c0-29.634-7.999-53.035-23.986-70.202c-15.997-17.157-37.835-25.74-65.522-25.74h-1.17
		V22.286c0-5.336-1.75-8.923-5.227-10.782c-3.477,1.86-5.227,5.446-5.227,10.782v46.216h-4.094c-11.264,0-21.581,1.166-30.95,3.497
		c-15.616,3.885-28.601,11.008-38.959,21.366c-16.583,16.581-24.864,40.275-24.864,71.079v21.646
		c0,40.951,10.914,68.447,32.76,82.488c10.531,7.02,20.86,11.992,31.007,14.918c10.137,2.925,25.448,5.365,45.924,7.313
		c20.476,1.956,34.223,3.711,41.244,5.265c7.797,1.956,14.625,5.658,20.476,11.115c5.851,5.466,8.776,13.071,8.776,22.815v8.776
		c0,15.996-3.026,26.911-9.068,32.761c-6.052,5.85-16.674,8.776-31.884,8.776h-23.401c-4.906,0-9.327-0.27-13.268-0.809
		c-3.765,0.537-7.944,0.809-12.55,0.809h-23.401c-15.604,0-26.325-2.724-32.176-8.191c-5.85-5.457-8.776-15.594-8.776-30.42v-4.096
		c0-8.19-4.094-12.285-12.284-12.285h-0.509c-8.19,0-12.284,4.095-12.284,12.285v11.115c0,30.037,8.281,53.529,24.862,70.495
		c16.572,16.966,39.681,25.449,69.325,25.449h4.094v45.046c0,5.336,1.75,8.922,5.227,10.782
		C285.548,498.637,287.299,495.051,287.299,489.714z"/>
</g>
<path d="M275.013,512h-35.101c-13.747,0-22.286-8.54-22.286-22.286v-35.156c-29.545-1.108-53.265-10.631-70.573-28.351
	c-18.386-18.813-27.709-44.882-27.709-77.482V337.61c0-13.746,8.539-22.285,22.284-22.285h49.728
	c13.745,0,22.284,8.539,22.284,22.285v4.096c0,15.563,3.507,21.158,5.598,23.108c2.203,2.058,8.418,5.502,25.354,5.502h23.4
	c15.508,0,22.118-3.244,24.934-5.965c2.244-2.173,6.019-8.393,6.019-25.571v-8.775c0-6.913-1.832-11.986-5.603-15.508
	c-4.591-4.282-9.812-7.127-15.948-8.689c-6.643-1.453-20.063-3.149-39.896-5.044c-21.275-2.023-36.895-4.529-47.745-7.659
	c-11.051-3.186-22.394-8.623-33.713-16.16c-24.737-15.942-37.281-46.51-37.281-90.854v-21.646c0-24.395,5.004-45.112,14.873-61.576
	c2.839-4.737,8.98-6.275,13.719-3.436c4.736,2.839,6.275,8.981,3.436,13.719c-7.98,13.313-12.027,30.571-12.027,51.293v21.646
	c0,37.141,9.477,62.063,28.166,74.075c0.047,0.03,0.094,0.061,0.141,0.092c9.632,6.42,19.13,11.006,28.23,13.63
	c9.512,2.745,24.349,5.088,44.1,6.966c21.079,2.014,34.966,3.798,42.458,5.457c0.091,0.02,0.182,0.042,0.272,0.064
	c9.429,2.366,17.794,6.909,24.863,13.502c7.935,7.413,11.955,17.547,11.955,30.128v8.775c0,18.988-3.962,32.054-12.112,39.945
	c-8.07,7.802-20.773,11.591-38.84,11.591h-23.4c-18.406,0-31.164-3.56-39.003-10.883c-8.039-7.5-11.949-19.842-11.949-37.728v-4.096
	c0-1.096-0.121-1.742-0.212-2.073c-0.331-0.09-0.978-0.212-2.072-0.212h-49.728c-1.095,0-1.741,0.122-2.072,0.212
	c-0.091,0.33-0.212,0.977-0.212,2.073v11.115c0,27.576,7.201,48.348,22.014,63.505c14.749,15.099,35.086,22.438,62.175,22.438h4.094
	c5.522,0,10,4.477,10,10v45.046c0,1.096,0.122,1.743,0.213,2.073c0.33,0.091,0.977,0.212,2.073,0.212h35.101
	c1.097,0,1.743-0.122,2.073-0.212c0.091-0.331,0.213-0.977,0.213-2.073v-45.046c0-5.523,4.478-10,10-10h1.169
	c26.763,0,47.139-7.283,62.294-22.267c15.127-14.948,22.479-35.776,22.479-63.676v-22.23c0-34.586-9.006-58.604-26.77-71.39
	c-9.258-6.396-18.681-11.159-28.009-14.155c-9.594-3.071-24.405-5.481-44.013-7.163c-21.023-1.802-35.587-3.469-44.521-5.098
	c-0.087-0.016-0.173-0.033-0.259-0.05c-8.995-1.886-17.152-5.843-24.246-11.763c-8.089-6.735-12.368-16.371-12.368-27.86v-11.701
	c0-20.366,3.656-34.178,11.178-42.223c7.7-8.235,20.71-12.238,39.772-12.238h18.721c18.852,0,31.743,3.596,39.411,10.993
	c7.77,7.518,11.541,19.819,11.541,37.618v4.095c0,1.096,0.122,1.743,0.213,2.073c0.33,0.091,0.977,0.212,2.073,0.212h49.726
	c1.097,0,1.743-0.122,2.073-0.213c0.091-0.33,0.213-0.977,0.213-2.073v-11.116c0-26.879-7.168-48.206-21.305-63.387
	C332.524,85.879,313.484,78.5,288.469,78.5H287.3c-5.522,0-10-4.477-10-10V22.286c0-1.096-0.122-1.743-0.213-2.073
	c-0.33-0.091-0.977-0.212-2.073-0.212h-35.101c-1.097,0-1.743,0.122-2.073,0.212c-0.091,0.331-0.213,0.977-0.213,2.073v46.217
	c0,5.523-4.478,10-10,10h-10.094c-5.522,0-10-4.477-10-10s4.478-10,10-10h0.094V22.286C217.626,8.54,226.165,0,239.912,0h35.101
	c13.747,0,22.286,8.54,22.286,22.286v36.5c26.375,1.728,47.878,11.339,64.006,28.637c17.699,19.007,26.672,44.919,26.672,77.021
	v11.116c0,13.746-8.54,22.286-22.286,22.286h-49.726c-13.746,0-22.286-8.54-22.286-22.286v-4.095c0-15.639-3.406-21.27-5.438-23.234
	c-1.668-1.609-7.517-5.376-25.515-5.376h-18.721c-17.097,0-23.104,3.695-25.164,5.897c-1.739,1.86-5.786,8.37-5.786,28.563v11.701
	c0,7.341,2.953,10.648,5.174,12.498c4.593,3.833,9.636,6.292,15.421,7.524c8.213,1.487,22.514,3.109,42.508,4.823
	c21.394,1.834,37.229,4.465,48.411,8.044c11.236,3.609,22.455,9.262,33.355,16.803c0.047,0.032,0.094,0.065,0.14,0.098
	c23.342,16.745,35.177,46.247,35.177,87.688v22.23c0,33.056-9.562,59.266-28.421,77.901c-17.047,16.854-39.732,26.184-67.521,27.792
	v35.297C297.299,503.46,288.76,512,275.013,512z"/>
<circle cx="174.99" cy="77.78" r="10"/>
<g>
</g>
<g>
</g>
<g>
</g>
<g>
</g>
<g>
</g>
<g>
</g>
<g>
</g>
<g>
</g>
<g>
</g>
<g>
</g>
<g>
</g>
<g>
</g>
<g>
</g>
<g>
</g>
<g>
</g>
</svg>
